<?xml version="1.0" standalone="no"?><!DOCTYPE svg PUBLIC "-//W3C//DTD SVG 1.1//EN" "http://www.w3.org/Graphics/SVG/1.1/DTD/svg11.dtd"><svg t="1739332000103" class="icon" viewBox="0 0 1024 1024" version="1.1" xmlns="http://www.w3.org/2000/svg" p-id="6962" xmlns:xlink="http://www.w3.org/1999/xlink" width="320" height="320"><path d="M114.395429 950.857143a73.142857 73.142857 0 0 0 73.142857 73.142857h631.954285a73.142857 73.142857 0 0 0 73.142858-73.142857V261.997714L636.050286 0H187.538286a73.142857 73.142857 0 0 0-73.142857 73.142857v877.714286z" fill="#E46332" p-id="6963"></path><path d="M635.611429 188.854857a73.142857 73.142857 0 0 0 73.142857 73.142857h188.854857L635.538286 0v188.854857z" fill="#FFFFFF" fill-opacity=".8" p-id="6964"></path><path d="M52.882286 675.84m0 0l918.089143 0q0 0 0 0l0 204.8q0 0 0 0l-918.089143 0q0 0 0 0l0-204.8q0 0 0 0Z" fill="#FFFFFF" fill-opacity=".8" p-id="6965"></path><path d="M377.929143 840.484571h-26.477714v-51.273142h-52.955429v51.273142h-26.477714v-124.342857h26.477714v50.176h52.955429V716.068571h26.477714v124.342858z m114.834286-102.692571h-35.401143v102.692571H430.811429v-102.692571h-35.401143v-21.650286h97.426285v21.650286z m130.925714 102.692571v-75.483428q0-10.386286 1.024-26.185143h-0.658286q-2.413714 11.922286-3.803428 15.945143l-30.72 85.723428h-21.065143l-31.085715-84.918857q-1.097143-3.072-3.949714-16.822857h-0.731428q1.097143 15.725714 1.097142 31.451429v70.290285H509.805714v-124.342857h38.473143l26.843429 75.117715q3.364571 9.362286 4.608 17.554285h0.512q2.486857-10.24 5.12-17.700571l26.916571-74.971429h37.522286v124.342857h-26.185143z m128.146286 0h-72.923429v-124.342857h26.477714v102.692572h46.445715v21.650285z" fill="#E46332" p-id="6966"></path><path d="M657.115429 326.875429H413.696l5.851429 65.097142h231.862857l-17.554286 195.291429-130.486857 36.205714-130.267429-36.205714-8.996571-99.913143h63.926857l4.534857 50.834286 70.875429 19.017143h0.219428l70.729143-19.090286 7.387429-82.505143H361.325714L344.137143 263.314286h318.683428l-5.705142 63.634285z" fill="#FFFFFF" p-id="6967"></path></svg>