<?xml version="1.0" standalone="no"?><!DOCTYPE svg PUBLIC "-//W3C//DTD SVG 1.1//EN" "http://www.w3.org/Graphics/SVG/1.1/DTD/svg11.dtd"><svg t="1739960703119" class="icon" viewBox="0 0 1024 1024" version="1.1" xmlns="http://www.w3.org/2000/svg" p-id="5086" xmlns:xlink="http://www.w3.org/1999/xlink" width="320" height="320"><path d="M0 0v1024h1024V0z m481.928533 344.917333h-133.12v420.317867H254.464V344.917333h-133.12V258.7648h360.584533z m239.8208 424.311467c-74.308267 0-138.990933-23.2448-192.443733-69.12l-7.850667-6.826667 61.678934-70.587733 7.68 6.280533c36.590933 30.1056 80.827733 45.568 131.4816 46.011734 36.352-0.512 84.753067-7.099733 85.777066-57.617067 0.375467-30.993067-17.066667-48.503467-54.613333-55.022933q-29.320533-3.9936-64.238933-8.977067c-44.1344-7.2704-78.199467-23.893333-101.4784-49.595733-24.098133-26.487467-36.317867-59.0848-36.317867-96.8704 0-45.226667 15.36-82.295467 45.636267-110.216534 29.047467-27.306667 70.5536-41.5744 123.1872-42.018133 62.600533 1.365333 117.589333 18.944 163.84 52.258133l8.055466 5.802667L839.68 390.109867l-8.430933-5.563734a213.9136 213.9136 0 0 0-114.926934-35.6352c-20.0704 0-37.0688 5.0176-50.312533 14.9504s-19.8656 24.4736-20.241067 44.680534a43.144533 43.144533 0 0 0 13.482667 30.72c9.386667 9.966933 25.122133 17.066667 46.830933 21.026133 12.970667 2.184533 31.232 4.744533 54.0672 7.5776 48.093867 6.587733 84.2752 24.2688 107.6224 52.667733a148.3776 148.3776 0 0 1 34.781867 97.28c-2.628267 98.986667-63.453867 150.186667-180.804267 151.415467z" fill="#6CA0F5" p-id="5087"></path></svg>