<?xml version="1.0" standalone="no"?><!DOCTYPE svg PUBLIC "-//W3C//DTD SVG 1.1//EN" "http://www.w3.org/Graphics/SVG/1.1/DTD/svg11.dtd"><svg t="1739332171362" class="icon" viewBox="0 0 1024 1024" version="1.1" xmlns="http://www.w3.org/2000/svg" p-id="9148" xmlns:xlink="http://www.w3.org/1999/xlink" width="320" height="320"><path d="M737.28 0h-17.066667l17.066667 17.066667v93.866666c0 40.96 34.133333 75.093333 75.093333 75.093334h93.866667l17.066667 17.066666v-17.066666L737.28 0z m-17.066667 119.466667V0h-546.133333c-47.786667 0-85.333333 37.546667-85.333333 85.333333v853.333334c0 47.786667 37.546667 85.333333 85.333333 85.333333h665.6c47.786667 0 85.333333-37.546667 85.333333-85.333333V204.8h-119.466666c-46.08 0-85.333333-37.546667-85.333334-85.333333z m-392.533333 244.053333h22.186667c11.946667 0 22.186667-8.533333 22.186666-20.48v-59.733333c0-44.373333 30.72-97.28 85.333334-97.28l5.12 56.32c-11.946667 0-23.893333 3.413333-32.426667 11.946666-8.533333 6.826667-13.653333 17.066667-13.653333 27.306667v80.213333c0 10.24-10.24 20.48-22.186667 20.48 11.946667 0 22.186667 8.533333 22.186667 20.48v80.213334c0 10.24 5.12 20.48 13.653333 27.306666 8.533333 6.826667 20.48 11.946667 32.426667 11.946667l-5.12 58.026667c-54.613333 0-85.333333-52.906667-85.333334-97.28v-59.733334c0-10.24-10.24-20.48-22.186666-20.48h-22.186667v-39.253333z m95.573333 517.12c-8.533333 6.826667-18.773333 10.24-32.426666 10.24-13.653333 0-23.893333-3.413333-32.426667-8.533333s-15.36-13.653333-18.773333-23.893334c-5.12-10.24-6.826667-20.48-6.826667-32.426666s1.706667-23.893333 6.826667-34.133334c5.12-10.24 11.946667-17.066667 20.48-22.186666 8.533333-5.12 18.773333-6.826667 29.013333-6.826667 11.946667 0 22.186667 3.413333 30.72 8.533333 8.533333 6.826667 13.653333 15.36 17.066667 25.6l-15.36 3.413334c-3.413333-8.533333-6.826667-15.36-11.946667-18.773334-5.12-3.413333-11.946667-6.826667-20.48-6.826666-10.24 0-17.066667 1.706667-23.893333 6.826666-6.826667 5.12-10.24 10.24-13.653334 18.773334-1.706667 6.826667-3.413333 15.36-3.413333 23.893333 0 10.24 1.706667 18.773333 5.12 27.306667 3.413333 8.533333 8.533333 13.653333 13.653333 17.066666 6.826667 3.413333 13.653333 5.12 20.48 5.12 8.533333 0 17.066667-3.413333 22.186667-8.533333 6.826667-5.12 10.24-13.653333 11.946667-23.893333l15.36 3.413333c0 18.773333-5.12 29.013333-13.653334 35.84z m119.466667-6.826667c-3.413333 5.12-8.533333 10.24-15.36 13.653334-6.826667 3.413333-15.36 5.12-23.893333 5.12-10.24 0-20.48-1.706667-27.306667-5.12-6.826667-3.413333-13.653333-8.533333-17.066667-15.36-3.413333-6.826667-6.826667-13.653333-6.826666-22.186667l15.36-1.706667c0 6.826667 1.706667 11.946667 5.12 15.36 3.413333 3.413333 6.826667 6.826667 11.946666 10.24 5.12 1.706667 11.946667 3.413333 18.773334 3.413334 6.826667 0 11.946667-1.706667 17.066666-3.413334 5.12-1.706667 8.533333-5.12 10.24-6.826666 1.706667-3.413333 3.413333-6.826667 3.413334-10.24 0-3.413333-1.706667-6.826667-3.413334-10.24-1.706667-3.413333-5.12-5.12-10.24-6.826667-3.413333-1.706667-10.24-3.413333-22.186666-5.12-11.946667-3.413333-18.773333-5.12-23.893334-6.826667-5.12-3.413333-10.24-6.826667-13.653333-11.946666-3.413333-5.12-5.12-10.24-5.12-15.36 0-6.826667 1.706667-11.946667 5.12-17.066667 3.413333-5.12 8.533333-10.24 15.36-11.946667 6.826667-3.413333 13.653333-3.413333 22.186667-3.413333s17.066667 1.706667 23.893333 5.12c6.826667 3.413333 11.946667 6.826667 15.36 13.653333 3.413333 5.12 5.12 11.946667 6.826667 18.773334L529.066667 802.133333c0-8.533333-3.413333-13.653333-8.533334-17.066666-5.12-3.413333-11.946667-5.12-20.48-5.12-10.24 0-17.066667 1.706667-22.186666 5.12-5.12 3.413333-6.826667 8.533333-6.826667 13.653333 0 5.12 1.706667 8.533333 5.12 10.24 3.413333 3.413333 11.946667 5.12 23.893333 8.533333 13.653333 3.413333 22.186667 5.12 27.306667 8.533334 6.826667 3.413333 11.946667 6.826667 15.36 11.946666 3.413333 5.12 5.12 10.24 5.12 17.066667s-1.706667 11.946667-5.12 18.773333z m119.466667 0c-3.413333 5.12-8.533333 10.24-15.36 13.653334-6.826667 3.413333-15.36 5.12-23.893334 5.12-10.24 0-20.48-1.706667-27.306666-5.12-6.826667-3.413333-13.653333-8.533333-17.066667-15.36-3.413333-6.826667-6.826667-13.653333-6.826667-22.186667l15.36-1.706667c0 6.826667 1.706667 11.946667 5.12 15.36s6.826667 6.826667 11.946667 10.24 11.946667 3.413333 18.773333 3.413334c6.826667 0 11.946667-1.706667 17.066667-3.413334 5.12-1.706667 8.533333-5.12 10.24-6.826666 1.706667-3.413333 3.413333-6.826667 3.413333-10.24 0-3.413333-1.706667-6.826667-3.413333-10.24-1.706667-3.413333-5.12-5.12-10.24-6.826667-3.413333-1.706667-10.24-3.413333-22.186667-5.12-11.946667-3.413333-18.773333-5.12-23.893333-6.826667-5.12-3.413333-10.24-6.826667-13.653333-11.946666-3.413333-5.12-5.12-10.24-5.12-15.36 0-6.826667 1.706667-11.946667 5.12-17.066667 3.413333-5.12 8.533333-10.24 15.36-11.946667 6.826667-3.413333 13.653333-3.413333 22.186666-3.413333s17.066667 1.706667 23.893334 5.12c6.826667 3.413333 11.946667 6.826667 15.36 13.653333 3.413333 5.12 5.12 11.946667 6.826666 18.773334L648.533333 802.133333c0-8.533333-3.413333-13.653333-8.533333-17.066666-5.12-3.413333-11.946667-5.12-20.48-5.12-10.24 0-17.066667 1.706667-22.186667 5.12-5.12 3.413333-6.826667 8.533333-6.826666 13.653333 0 5.12 1.706667 8.533333 5.12 10.24 3.413333 3.413333 11.946667 5.12 23.893333 8.533333 13.653333 3.413333 22.186667 5.12 27.306667 8.533334 6.826667 3.413333 11.946667 6.826667 15.36 11.946666 3.413333 5.12 5.12 10.24 5.12 17.066667s-1.706667 11.946667-5.12 18.773333z m23.893333-469.333333h-22.186667c-11.946667 0-22.186667 8.533333-22.186666 20.48v59.733333c0 44.373333-30.72 97.28-85.333334 97.28l-5.12-56.32c11.946667 0 23.893333-3.413333 32.426667-11.946666 8.533333-6.826667 13.653333-17.066667 13.653333-27.306667v-80.213333c0-10.24 10.24-20.48 22.186667-20.48-11.946667 0-22.186667-8.533333-22.186667-20.48v-80.213334c0-10.24-5.12-20.48-13.653333-27.306666-8.533333-6.826667-20.48-11.946667-32.426667-11.946667l5.12-56.32c54.613333 0 85.333333 52.906667 85.333334 97.28v59.733333c0 10.24 10.24 20.48 22.186666 20.48h22.186667v37.546667z" fill="#358BBD" p-id="9149"></path></svg>