<svg width="29" height="29" viewBox="0 0 29 29" fill="none" xmlns="http://www.w3.org/2000/svg">
<rect width="29" height="29" rx="6.34062" fill="black"/>
<g clip-path="url(#clip0_6_18462)">
<path d="M6.37233 8.69395L11.7636 5.58105L12.5922 6.05985L12.5939 6.05872L12.9341 6.2546L17.8831 9.11209L17.8819 9.11351L18.5362 9.49167V11.0542V14.1614L17.1766 14.947V10.269L11.7783 7.15267L10.7805 7.72842L5 11.0658V9.75389V9.486L6.37233 8.69395Z" fill="white"/>
<path d="M5 18.8679V12.6457L5.68602 12.25L11.1184 9.11358V9.11216L11.7766 8.73145L13.1314 9.51442L15.8168 11.0648V12.6341L11.7715 10.2999L9.09516 11.8443L6.37233 13.4174V16.1904V19.6633V21.2434L5.93974 20.9934L5 20.4511V18.8679Z" fill="white"/>
<path d="M22.6282 21.2433L17.2367 24.3559L16.7707 24.0857L16.769 24.0869L11.1183 20.8249V20.8237L10.4641 20.4453H10.4635V15.7752L11.8239 14.99V19.6657L11.8973 19.7077L14.5003 21.211L17.2245 22.7832L19.2213 21.6305L24 18.8711V19.8228V20.451L22.6282 21.2433Z" fill="white"/>
<path d="M24 11.0693V17.2914L23.6255 17.5069L22.6282 18.0835L17.8819 20.8239L17.883 20.825L17.2256 21.2032V21.2046L15.8703 20.4213L13.1838 18.8713V17.3005L17.2299 19.6372L22.6282 16.5198V16.0526L22.6333 16.0557V8.69629L23.6238 9.26835L24 9.48607V11.0693Z" fill="white"/>
<path d="M14.5003 25.9359L13.1282 25.1447L7.74011 22.0329V21.1887L7.73529 21.185V14.2106L9.09515 13.4253L11.7808 11.8752L13.1404 12.6594L9.09515 14.9958V18.0917V21.2352L13.5597 23.8135L14.5003 24.356L15.8689 25.1458L15.0531 25.6167L14.5003 25.9359Z" fill="white"/>
<path d="M15.8726 4.79233L21.265 7.90608V8.69614V9.48592V15.7265L17.222 18.0618L15.861 17.2754L19.9051 14.9409V8.70181L18.5648 7.92677L18.1339 7.67816L14.5003 5.58097L13.1313 4.79119L14.0705 4.24861L14.5003 4L15.8726 4.79233Z" fill="white"/>
</g>
<defs>
<clipPath id="clip0_6_18462">
<rect width="19" height="21.9357" fill="white" transform="translate(5 4)"/>
</clipPath>
</defs>
</svg>