<?xml version="1.0" standalone="no"?><!DOCTYPE svg PUBLIC "-//W3C//DTD SVG 1.1//EN" "http://www.w3.org/Graphics/SVG/1.1/DTD/svg11.dtd"><svg t="1738728156951" class="icon" viewBox="0 0 1024 1024" version="1.1" xmlns="http://www.w3.org/2000/svg" p-id="3962" xmlns:xlink="http://www.w3.org/1999/xlink" width="200" height="200"><path d="M248 680a8 8 0 0 1-8-8v-56a8 8 0 0 1 16 0V672a8 8 0 0 1-8 8zM776 680a8 8 0 0 1-8-8v-56a8 8 0 0 1 16 0V672a8 8 0 0 1-8 8zM400 952H96c-13.232 0-24-10.768-24-24V720c0-13.232 10.768-24 24-24h304c13.232 0 24 10.768 24 24v208c0 13.232-10.768 24-24 24z m-304-240a8 8 0 0 0-8 8v208a8 8 0 0 0 8 8h304a8 8 0 0 0 8-8V720a8 8 0 0 0-8-8H96z" fill="#263238" p-id="3963"></path><path d="M448 1000H48c-13.232 0-24-10.768-24-24v-16c0-13.232 10.768-24 24-24h400c13.232 0 24 10.768 24 24v16c0 13.232-10.768 24-24 24z m-400-48a8 8 0 0 0-8 8v16a8 8 0 0 0 8 8h400a8 8 0 0 0 8-8v-16a8 8 0 0 0-8-8H48z" fill="#263238" p-id="3964"></path><path d="M80 744h336v160H80z" fill="#40C4FF" p-id="3965"></path><path d="M416 912H80a8 8 0 0 1-8-8v-160A8 8 0 0 1 80 736h336a8 8 0 0 1 8 8v160a8 8 0 0 1-8 8zM88 896h320v-144h-320v144zM928 952H624c-13.232 0-24-10.768-24-24V720c0-13.232 10.768-24 24-24h304c13.232 0 24 10.768 24 24v208c0 13.232-10.768 24-24 24z m-304-240a8 8 0 0 0-8 8v208a8 8 0 0 0 8 8h304a8 8 0 0 0 8-8V720a8 8 0 0 0-8-8H624z" fill="#263238" p-id="3966"></path><path d="M976 1000H576c-13.232 0-24-10.768-24-24v-16c0-13.232 10.768-24 24-24h400c13.232 0 24 10.768 24 24v16c0 13.232-10.768 24-24 24z m-400-48a8 8 0 0 0-8 8v16a8 8 0 0 0 8 8h400a8 8 0 0 0 8-8v-16a8 8 0 0 0-8-8H576z" fill="#263238" p-id="3967"></path><path d="M608 744h336v160H608z" fill="#40C4FF" p-id="3968"></path><path d="M944 912H608a8 8 0 0 1-8-8v-160a8 8 0 0 1 8-8h336a8 8 0 0 1 8 8v160a8 8 0 0 1-8 8z m-328-16h320v-144h-320v144zM272 72h-64a8 8 0 0 1 0-16h64a8 8 0 0 1 0 16z" fill="#263238" p-id="3969"></path><path d="M240 104a8 8 0 0 1-8-8V32a8 8 0 0 1 16 0v64a8 8 0 0 1-8 8zM160 176H96a8 8 0 0 1 0-16h64a8 8 0 0 1 0 16z" fill="#263238" p-id="3970"></path><path d="M128 208a8 8 0 0 1-8-8v-64a8 8 0 0 1 16 0v64a8 8 0 0 1-8 8z" fill="#263238" p-id="3971"></path><path d="M512 264m-192 0a192 192 0 1 0 384 0 192 192 0 1 0-384 0Z" fill="#FFD740" p-id="3972"></path><path d="M512 464c-110.288 0-200-89.712-200-200S401.712 64 512 64s200 89.712 200 200S622.288 464 512 464z m0-384c-101.456 0-184 82.544-184 184S410.544 448 512 448s184-82.544 184-184S613.456 80 512 80z" fill="#263238" p-id="3973"></path><path d="M512 176c-55.6 0-109.072-12.032-146.72-33.008a8 8 0 1 1 7.792-13.968C408.4 148.704 459.04 160 512 160s103.6-11.296 138.928-30.992a8 8 0 0 1 7.792 13.968C621.072 163.968 567.6 176 512 176zM654.816 400a8.096 8.096 0 0 1-3.888-1.008C615.6 379.296 564.96 368 512 368s-103.6 11.296-138.928 30.992a8 8 0 0 1-7.792-13.968C402.928 364.032 456.4 352 512 352s109.072 12.032 146.72 33.008a8 8 0 0 1-3.904 14.992z" fill="#263238" p-id="3974"></path><path d="M512 464c-69.952 0-126.864-89.712-126.864-200S442.048 64 512 64s126.864 89.712 126.864 200S581.952 464 512 464z m0-384c-61.12 0-110.864 82.544-110.864 184S450.88 448 512 448s110.864-82.544 110.864-184S573.12 80 512 80z" fill="#263238" p-id="3975"></path><path d="M512 464a8 8 0 0 1-8-8v-384a8 8 0 0 1 16 0v384a8 8 0 0 1-8 8z" fill="#263238" p-id="3976"></path><path d="M704 272H320a8 8 0 0 1 0-16h384a8 8 0 0 1 0 16zM896 584H128a8 8 0 0 1 0-16h768a8 8 0 0 1 0 16zM512 544a8 8 0 0 1-8-8v-48a8 8 0 0 1 16 0v48a8 8 0 0 1-8 8z" fill="#263238" p-id="3977"></path><path d="M512 576m-40 0a40 40 0 1 0 80 0 40 40 0 1 0-80 0Z" fill="#FFFFFF" p-id="3978"></path><path d="M512 623.248c-26.048 0-47.264-21.184-47.264-47.248s21.2-47.248 47.264-47.248 47.264 21.184 47.264 47.248-21.2 47.248-47.264 47.248z m0-80c-18.048 0-32.736 14.688-32.736 32.752s14.688 32.752 32.736 32.752 32.736-14.688 32.736-32.752-14.672-32.752-32.736-32.752z" fill="#263238" p-id="3979"></path><path d="M776 576m-40 0a40 40 0 1 0 80 0 40 40 0 1 0-80 0Z" fill="#FFFFFF" p-id="3980"></path><path d="M776 623.248c-26.048 0-47.264-21.184-47.264-47.248s21.2-47.248 47.264-47.248 47.264 21.184 47.264 47.248-21.216 47.248-47.264 47.248z m0-80c-18.048 0-32.736 14.688-32.736 32.752s14.688 32.752 32.736 32.752 32.736-14.688 32.736-32.752-14.688-32.752-32.736-32.752z" fill="#263238" p-id="3981"></path><path d="M248 576m-40 0a40 40 0 1 0 80 0 40 40 0 1 0-80 0Z" fill="#FFFFFF" p-id="3982"></path><path d="M248 623.248c-26.048 0-47.264-21.184-47.264-47.248s21.2-47.248 47.264-47.248 47.264 21.184 47.264 47.248-21.216 47.248-47.264 47.248z m0-80c-18.048 0-32.736 14.688-32.736 32.752s14.688 32.752 32.736 32.752 32.736-14.688 32.736-32.752-14.688-32.752-32.736-32.752z" fill="#263238" p-id="3983"></path></svg>