<?xml version="1.0" standalone="no"?><!DOCTYPE svg PUBLIC "-//W3C//DTD SVG 1.1//EN" "http://www.w3.org/Graphics/SVG/1.1/DTD/svg11.dtd"><svg t="1738724160181" class="icon" viewBox="0 0 1024 1024" version="1.1" xmlns="http://www.w3.org/2000/svg" p-id="3642" xmlns:xlink="http://www.w3.org/1999/xlink" width="200" height="200"><path d="M906.24 366.08H117.76V209.92c0-38.4 30.72-69.12 69.12-69.12h651.52c38.4 0 69.12 30.72 69.12 69.12v156.16z m0 39.68v408.32c0 38.4-30.72 69.12-69.12 69.12H186.88c-38.4 0-69.12-30.72-69.12-69.12V405.76h788.48z m-678.4-102.4c24.32 0 44.8-20.48 44.8-44.8s-20.48-44.8-44.8-44.8-44.8 20.48-44.8 44.8 20.48 44.8 44.8 44.8z m102.4 0c24.32 0 44.8-20.48 44.8-44.8s-20.48-44.8-44.8-44.8-44.8 20.48-44.8 44.8c1.28 24.32 20.48 44.8 44.8 44.8z m103.68 0c24.32 0 44.8-20.48 44.8-44.8s-20.48-44.8-44.8-44.8-44.8 20.48-44.8 44.8 20.48 44.8 44.8 44.8zM285.44 710.4h29.44v-101.12c12.8-12.8 21.76-19.2 34.56-19.2 16.64 0 24.32 10.24 24.32 34.56v85.76h29.44v-89.6c0-35.84-14.08-56.32-43.52-56.32-19.2 0-33.28 10.24-46.08 23.04l1.28-28.16v-55.04h-29.44v206.08z m208.64 3.84c10.24 0 20.48-2.56 28.16-5.12l-5.12-21.76c-3.84 1.28-10.24 3.84-15.36 3.84-15.36 0-20.48-8.96-20.48-25.6v-72.96h37.12v-24.32h-37.12v-39.68h-25.6l-3.84 39.68-21.76 1.28v21.76h20.48v71.68c0 30.72 11.52 51.2 43.52 51.2z m97.28 0c10.24 0 20.48-2.56 28.16-5.12l-5.12-21.76c-3.84 1.28-10.24 3.84-15.36 3.84-15.36 0-20.48-8.96-20.48-25.6v-72.96H614.4v-24.32h-37.12v-39.68h-25.6l-3.84 39.68-21.76 1.28v21.76h20.48v71.68c1.28 30.72 12.8 51.2 44.8 51.2z m55.04 55.04h29.44v-46.08l-1.28-24.32c12.8 10.24 24.32 16.64 37.12 16.64 32 0 61.44-28.16 61.44-76.8 0-43.52-20.48-72.96-56.32-72.96-15.36 0-32 8.96-43.52 19.2h-1.28l-2.56-15.36h-24.32v199.68z m60.16-79.36c-8.96 0-20.48-3.84-30.72-12.8v-70.4c12.8-11.52 23.04-17.92 34.56-17.92 24.32 0 33.28 17.92 33.28 48.64-1.28 33.28-16.64 52.48-37.12 52.48z m0 0" p-id="3643"></path></svg>